<svg xmlns="http://www.w3.org/2000/svg" xmlns:xlink="http://www.w3.org/1999/xlink" width="500" zoomAndPan="magnify" viewBox="0 0 375 374.999991" height="500" preserveAspectRatio="xMidYMid meet" version="1.2"><g id="7116c52e03"><path style=" stroke:none;fill-rule:nonzero;fill:#000000;fill-opacity:1;" d="M 267.164062 146.628906 C 266.976562 146.914062 262.648438 159.722656 257.515625 175.125 L 248.152344 203.152344 L 258.128906 202.871094 L 267.496094 174.84375 C 272.625 159.441406 276.8125 146.675781 276.8125 146.488281 C 276.8125 145.875 267.496094 146.066406 267.164062 146.628906 Z M 267.164062 146.628906 "/><path style=" stroke:none;fill-rule:nonzero;fill:#000000;fill-opacity:1;" d="M 190.917969 147.761719 C 181.601562 149.785156 174.964844 155.203125 171.480469 163.632812 C 167.621094 172.867188 166.679688 188.363281 169.269531 199.714844 L 170.070312 203.105469 L 175.433594 203.105469 C 178.398438 203.105469 180.800781 203.058594 180.800781 202.964844 C 180.800781 202.917969 180.375 201.503906 179.859375 199.855469 C 176.988281 190.671875 177.742188 174.183594 181.507812 166.035156 C 182.824219 163.117188 185.882812 159.675781 188.566406 158.121094 C 192.660156 155.671875 199.957031 154.921875 205.746094 156.285156 C 210.308594 157.371094 213.746094 159.820312 217.277344 164.671875 L 218.21875 165.941406 L 226.03125 160.667969 L 224.007812 157.792969 C 222.925781 156.238281 221.136719 154.214844 220.101562 153.320312 C 217.464844 151.058594 212.238281 148.5625 208.332031 147.761719 C 204.285156 146.914062 194.777344 146.914062 190.917969 147.761719 Z M 190.917969 147.761719 "/><path style=" stroke:none;fill-rule:nonzero;fill:#000000;fill-opacity:1;" d="M 47.980469 164.152344 L 16.585938 179.789062 L 16.585938 187.796875 L 32.214844 195.476562 L 47.839844 203.152344 L 64.972656 202.871094 L 45.484375 193.449219 C 34.753906 188.269531 26.140625 183.886719 26.328125 183.699219 C 26.519531 183.511719 38.613281 177.527344 53.25 170.464844 L 79.84375 157.511719 L 79.984375 152.988281 C 80.03125 150.492188 79.9375 148.46875 79.75 148.515625 C 79.5625 148.515625 65.253906 155.578125 47.980469 164.152344 Z M 47.980469 164.152344 "/><path style=" stroke:none;fill-rule:nonzero;fill:#000000;fill-opacity:1;" d="M 97.964844 175.785156 L 97.964844 203.105469 L 107.847656 203.105469 L 107.847656 188.503906 L 141.265625 188.503906 L 141.265625 203.105469 L 151.148438 203.105469 L 151.148438 148.46875 L 141.265625 148.46875 L 141.265625 179.554688 L 107.847656 179.554688 L 107.847656 148.46875 L 97.964844 148.46875 Z M 97.964844 175.785156 "/><path style=" stroke:none;fill-rule:nonzero;fill:#000000;fill-opacity:1;" d="M 293.851562 152.941406 L 293.992188 157.464844 L 320.585938 170.464844 C 335.222656 177.578125 347.320312 183.558594 347.507812 183.746094 C 347.695312 183.933594 339.082031 188.316406 328.398438 193.449219 L 308.914062 202.871094 L 317.433594 203.011719 L 326 203.152344 L 341.625 195.476562 L 357.296875 187.796875 L 357.296875 183.792969 L 357.25 179.789062 L 325.855469 164.246094 C 308.582031 155.722656 294.277344 148.65625 294.085938 148.5625 C 293.898438 148.46875 293.804688 150.445312 293.851562 152.941406 Z M 293.851562 152.941406 "/><path style=" stroke:none;fill-rule:nonzero;fill:#000000;fill-opacity:1;" d="M 198.214844 189.210938 L 198.214844 193.683594 L 216.097656 193.683594 L 216.097656 203.105469 L 225.984375 203.105469 L 225.984375 184.734375 L 198.214844 184.734375 Z M 198.214844 189.210938 "/><path style=" stroke:none;fill-rule:nonzero;fill:#000000;fill-opacity:1;" d="M 136.558594 212.335938 L 136.558594 215.398438 L 135.523438 214.691406 C 134.203125 213.75 130.957031 213.703125 129.6875 214.644531 C 128.367188 215.539062 127.144531 218.179688 127.144531 220.015625 C 127.144531 222.039062 128.414062 224.488281 129.96875 225.433594 C 131.804688 226.46875 134.722656 226.421875 136.230469 225.242188 C 137.40625 224.300781 137.40625 224.300781 137.640625 225.242188 C 137.828125 225.949219 138.300781 226.183594 139.335938 226.183594 C 140.558594 226.183594 140.792969 225.996094 140.792969 225.054688 C 140.792969 224.394531 140.605469 223.734375 140.324219 223.59375 C 140.039062 223.40625 139.851562 220.4375 139.851562 216.246094 L 139.851562 209.230469 L 136.558594 209.230469 Z M 135.523438 217.046875 C 136.371094 217.613281 136.558594 218.226562 136.558594 220.0625 C 136.558594 221.898438 136.371094 222.511719 135.523438 223.078125 C 134.957031 223.5 134.0625 223.832031 133.59375 223.832031 C 132.226562 223.832031 130.441406 221.710938 130.441406 220.0625 C 130.441406 218.414062 132.226562 216.292969 133.59375 216.292969 C 134.0625 216.292969 134.957031 216.625 135.523438 217.046875 Z M 135.523438 217.046875 "/><path style=" stroke:none;fill-rule:nonzero;fill:#000000;fill-opacity:1;" d="M 157.265625 210.640625 C 157.265625 211.914062 157.410156 212.054688 158.679688 212.054688 C 159.949219 212.054688 160.089844 211.914062 160.089844 210.640625 C 160.089844 209.371094 159.949219 209.230469 158.679688 209.230469 C 157.410156 209.230469 157.265625 209.371094 157.265625 210.640625 Z M 157.265625 210.640625 "/><path style=" stroke:none;fill-rule:nonzero;fill:#000000;fill-opacity:1;" d="M 201.839844 209.933594 C 199.484375 210.734375 198.261719 211.867188 197.226562 214.175781 C 195.671875 217.519531 196.191406 220.957031 198.589844 223.5 C 201.367188 226.46875 204.851562 227.035156 207.816406 225.007812 L 209.511719 223.878906 L 209.511719 225.007812 C 209.511719 225.761719 209.792969 226.183594 210.214844 226.183594 C 210.78125 226.183594 210.921875 225.433594 210.921875 222.183594 L 210.921875 218.179688 L 208.332031 218.179688 C 206.921875 218.179688 205.746094 218.367188 205.746094 218.648438 C 205.746094 218.882812 206.59375 219.121094 207.628906 219.121094 C 209.464844 219.121094 209.511719 219.167969 209.511719 220.769531 C 209.511719 222.085938 209.226562 222.605469 207.769531 223.59375 C 201.886719 227.550781 195.484375 220.582031 198.921875 213.890625 C 200.613281 210.6875 205.507812 209.933594 207.863281 212.527344 C 208.851562 213.609375 209.980469 213.75 209.980469 212.855469 C 209.980469 212.054688 208.144531 210.359375 206.921875 210.03125 C 204.332031 209.371094 203.484375 209.324219 201.839844 209.933594 Z M 201.839844 209.933594 "/><path style=" stroke:none;fill-rule:nonzero;fill:#000000;fill-opacity:1;" d="M 304.394531 209.980469 C 303.6875 211.867188 304.394531 212.101562 305.664062 210.40625 C 306.464844 209.277344 306.464844 209.230469 305.617188 209.230469 C 305.101562 209.230469 304.535156 209.558594 304.394531 209.980469 Z M 304.394531 209.980469 "/><path style=" stroke:none;fill-rule:nonzero;fill:#000000;fill-opacity:1;" d="M 41.484375 217.941406 L 41.484375 226.183594 L 44.78125 226.183594 L 44.78125 219.121094 L 52.308594 219.121094 L 52.308594 226.183594 L 55.605469 226.183594 L 55.605469 209.699219 L 52.308594 209.699219 L 52.308594 216.292969 L 44.78125 216.292969 L 44.78125 209.699219 L 41.484375 209.699219 Z M 41.484375 217.941406 "/><path style=" stroke:none;fill-rule:nonzero;fill:#000000;fill-opacity:1;" d="M 74.714844 214.929688 C 73.113281 216.199219 72.078125 218.226562 72.078125 220.0625 C 72.078125 223.59375 74.761719 226.183594 78.382812 226.183594 C 80.972656 226.183594 83.84375 224.867188 83.84375 223.640625 C 83.84375 222.746094 81.726562 222.417969 80.925781 223.171875 C 80.597656 223.5 79.75 223.925781 79.042969 224.066406 C 78.054688 224.300781 77.492188 224.113281 76.597656 223.171875 C 75.890625 222.511719 75.371094 221.757812 75.371094 221.476562 C 75.371094 221.191406 77.113281 221.003906 80.078125 221.003906 L 84.785156 221.003906 L 84.785156 219.542969 C 84.785156 217.707031 83.609375 215.683594 81.960938 214.691406 C 80.03125 213.609375 76.265625 213.703125 74.714844 214.929688 Z M 80.550781 216.765625 C 82.339844 218.554688 81.820312 219.121094 78.433594 219.121094 C 74.996094 219.121094 74.476562 218.460938 76.597656 216.8125 C 78.148438 215.585938 79.324219 215.539062 80.550781 216.765625 Z M 80.550781 216.765625 "/><path style=" stroke:none;fill-rule:nonzero;fill:#000000;fill-opacity:1;" d="M 99.847656 214.175781 C 99.847656 214.269531 100.882812 217.046875 102.199219 220.296875 C 104.035156 224.914062 104.460938 226.421875 104.128906 227.269531 C 103.660156 228.445312 102.433594 229.199219 101.683594 228.730469 C 101.445312 228.585938 101.257812 229.152344 101.257812 229.90625 C 101.257812 231.226562 101.398438 231.367188 102.71875 231.367188 C 104.460938 231.367188 105.777344 230.707031 106.4375 229.4375 C 106.71875 228.917969 108.128906 225.195312 109.542969 221.191406 L 112.082031 213.890625 L 110.578125 214.03125 C 109.117188 214.175781 109.023438 214.269531 107.613281 218.882812 L 106.152344 223.59375 L 104.554688 218.742188 C 102.953125 213.9375 102.953125 213.9375 101.398438 213.9375 C 100.554688 213.9375 99.847656 214.03125 99.847656 214.175781 Z M 99.847656 214.175781 "/><path style=" stroke:none;fill-rule:nonzero;fill:#000000;fill-opacity:1;" d="M 157.265625 220.0625 L 157.265625 226.183594 L 160.089844 226.183594 L 160.089844 213.9375 L 157.265625 213.9375 Z M 157.265625 220.0625 "/><path style=" stroke:none;fill-rule:nonzero;fill:#000000;fill-opacity:1;" d="M 229.464844 214.410156 C 228.382812 214.832031 227.628906 215.730469 228.007812 216.105469 C 228.148438 216.246094 228.902344 216.011719 229.703125 215.632812 C 232.621094 214.128906 235.394531 215.210938 235.394531 217.847656 C 235.394531 219.355469 235.394531 219.355469 233.277344 219.214844 C 230.59375 218.980469 229.042969 219.355469 227.867188 220.535156 C 226.640625 221.757812 226.6875 223.359375 227.914062 224.960938 C 228.714844 225.996094 229.277344 226.183594 231.113281 226.183594 C 232.667969 226.183594 233.75 225.902344 234.597656 225.242188 C 235.773438 224.300781 235.773438 224.300781 236.007812 225.242188 C 236.148438 225.761719 236.574219 226.183594 236.949219 226.183594 C 237.46875 226.183594 237.5625 225.480469 237.421875 222.511719 C 237.136719 217 236.902344 215.964844 235.539062 214.882812 C 234.265625 213.890625 231.347656 213.65625 229.464844 214.410156 Z M 235.300781 221.757812 C 235.585938 224.632812 231.347656 226.375 229.277344 224.300781 C 227.066406 222.085938 228.949219 219.921875 232.808594 220.15625 C 235.066406 220.296875 235.160156 220.34375 235.300781 221.757812 Z M 235.300781 221.757812 "/><path style=" stroke:none;fill-rule:nonzero;fill:#000000;fill-opacity:1;" d="M 254.695312 220.0625 C 254.695312 225.195312 254.789062 226.183594 255.398438 226.183594 C 255.964844 226.183594 256.105469 225.433594 256.105469 222.183594 C 256.105469 218.554688 256.199219 218.035156 257.234375 217 C 257.847656 216.386719 258.929688 215.730469 259.589844 215.539062 C 260.246094 215.398438 260.8125 214.976562 260.8125 214.597656 C 260.8125 213.5625 259.117188 213.84375 257.5625 215.164062 L 256.105469 216.386719 L 256.105469 215.164062 C 256.105469 214.410156 255.824219 213.9375 255.398438 213.9375 C 254.789062 213.9375 254.695312 214.929688 254.695312 220.0625 Z M 254.695312 220.0625 "/><path style=" stroke:none;fill-rule:nonzero;fill:#000000;fill-opacity:1;" d="M 279.074219 214.691406 C 275.402344 216.671875 275.449219 223.546875 279.167969 225.480469 C 281.710938 226.796875 286.132812 225.996094 286.839844 224.113281 C 287.261719 223.03125 286.085938 222.933594 284.957031 223.925781 C 282.273438 226.375 277.753906 223.972656 277.753906 220.109375 C 277.753906 217.425781 279.589844 215.351562 281.992188 215.351562 C 283.027344 215.351562 284.203125 215.730469 284.910156 216.246094 C 286.746094 217.707031 287.546875 216.71875 285.757812 215.164062 C 284.0625 213.75 281.191406 213.515625 279.074219 214.691406 Z M 279.074219 214.691406 "/><path style=" stroke:none;fill-rule:nonzero;fill:#000000;fill-opacity:1;" d="M 303.640625 220.0625 C 303.640625 225.855469 303.6875 226.183594 304.582031 226.183594 C 305.476562 226.183594 305.523438 225.855469 305.523438 220.0625 C 305.523438 214.269531 305.476562 213.9375 304.582031 213.9375 C 303.6875 213.9375 303.640625 214.269531 303.640625 220.0625 Z M 303.640625 220.0625 "/><path style=" stroke:none;fill-rule:nonzero;fill:#000000;fill-opacity:1;" d="M 324.539062 214.410156 C 323.457031 214.832031 322.703125 215.730469 323.078125 216.105469 C 323.222656 216.246094 323.972656 216.011719 324.773438 215.632812 C 327.691406 214.128906 330.46875 215.210938 330.46875 217.847656 C 330.46875 219.355469 330.46875 219.355469 328.351562 219.214844 C 325.667969 218.980469 324.117188 219.355469 322.9375 220.535156 C 321.714844 221.757812 321.761719 223.359375 322.984375 224.960938 C 323.785156 225.996094 324.351562 226.183594 326.1875 226.183594 C 327.738281 226.183594 328.820312 225.902344 329.667969 225.242188 C 330.847656 224.300781 330.847656 224.300781 331.082031 225.242188 C 331.222656 225.761719 331.644531 226.183594 332.023438 226.183594 C 332.539062 226.183594 332.632812 225.480469 332.492188 222.511719 C 332.210938 217 331.976562 215.964844 330.609375 214.882812 C 329.339844 213.890625 326.421875 213.65625 324.539062 214.410156 Z M 330.375 221.757812 C 330.65625 224.632812 326.421875 226.375 324.351562 224.300781 C 322.140625 222.085938 324.019531 219.921875 327.878906 220.15625 C 330.140625 220.296875 330.234375 220.34375 330.375 221.757812 Z M 330.375 221.757812 "/></g></svg>